#!OML:ASF H:\Terrain\Patient Classification 1\Terrain2\Thursday\justin.ASF
:FULLY-SPECIFIED
:DEGREES
1118
root 29.5654 17.7988 -0.958025 -243.786 -80.2482 -117.781
lowerback 12.1971 1.65462 10.5981
upperback 4.93554 3.12417 4.01139
thorax -1.23814 1.48596 -2.12329
lowerneck -13.5377 -1.03645 -10.6145
upperneck 36.0813 -1.53055 4.80944
head 14.9093 -1.88759 3.53049
rclavicle 4.21423e-014 1.03368e-014
rhumerus -25.1841 -1.39349 -83.7229
rradius 34.9542
rwrist -11.6401
rhand -21.3436 12.3702
rfingers 7.12502
rthumb 5.04258 -17.5498
lclavicle 4.21423e-014 1.03368e-014
lhumerus -37.7445 19.4839 78.4437
lradius 25.1482
lwrist -2.83832
lhand -17.5837 21.2291
lfingers 7.12502
lthumb 8.67212 51.031
rfemur 17.5097 -6.09595 32.6342
rtibia -6.36111e-014
rfoot -11.3785 3.33502
rtoes 7.15176
lfemur -64.2829 9.73299 -13.132
ltibia 78.9097
lfoot -6.23566 -15.5555
ltoes -0.162444
1119
root 29.4965 17.7863 -0.975185 -244.541 -80.3281 -117.009
lowerback 12.1934 1.62313 10.2417
upperback 4.95263 3.0416 4.16097
thorax -1.25944 1.43771 -1.76212
lowerneck -13.6478 -0.975856 -10.883
upperneck 36.2029 -1.38988 4.91083
head 14.9824 -1.85657 3.64818
rclavicle -1.82882e-014 -7.95139e-016
rhumerus -25.3227 -0.925066 -83.9511
rradius 35.0318
rwrist -11.7046
rhand -21.3272 12.1415
rfingers 7.12502
rthumb 5.05842 -17.7781
lclavicle -1.82882e-014 -7.95139e-016
lhumerus -37.8585 19.7499 78.5445
lradius 25.2955
lwrist -2.92382
lhand -17.4119 20.9369
lfingers 7.12502
lthumb 8.83793 50.7318
rfemur 17.7542 -6.21748 32.6983
rtibia 3.18055e-015
rfoot -11.6676 3.01026
rtoes 5.17911
lfemur -63.9696 9.7681 -13.1714
ltibia 78.1069
lfoot -6.12919 -15.2129
ltoes -1.01439
1120
root 29.4336 17.7755 -0.982247 -245.877 -80.3344 -115.434
lowerback 12.0824 1.57045 10.2612
upperback 4.88971 2.96918 4.19916
thorax -1.27443 1.40064 -1.72188
lowerneck -13.7731 -0.981295 -11.0089
upperneck 36.3024 -1.39203 5.02996
head 15.0617 -1.8624 3.72528
rclavicle 2.50469e-014 6.99722e-014
rhumerus -25.4247 -0.614649 -84.2761
rradius 35.1504
rwrist -11.9919
rhand -21.2172 11.9477
rfingers 7.12502
rthumb 5.16462 -17.9693
lclavicle 2.50469e-014 6.99722e-014
lhumerus -37.8925 19.6427 78.6576
lradius 25.4831
lwrist -2.67478
lhand -17.78 20.895
lfingers 7.12502
lthumb 8.48262 50.7046
rfemur 17.7261 -6.36848 32.8514
rtibia -1.27222e-014
rfoot -11.824 2.93887
rtoes 5.44146
lfemur -64.0321 9.84947 -13.1623
ltibia 77.4115
lfoot -5.82335 -15.0177
ltoes -0.273023
1121
root 29.3691 17.7799 -0.98626 -247.232 -80.4098 -113.873
lowerback 12.008 1.58459 10.2877
upperback 4.832 2.99127 4.16244
thorax -1.28954 1.41274 -1.77611
lowerneck -13.7961 -1.08462 -10.7923
upperneck 36.2322 -1.54416 4.88325
head 15.0476 -1.91024 3.59799
rclavicle 9.14409e-015 -4.77083e-014
rhumerus -25.5451 -0.560691 -84.5417
rradius 35.2715
rwrist -12.2197
rhand -20.952 11.8635
rfingers 7.12502
rthumb 5.42065 -18.0471
lclavicle 9.14409e-015 -4.77083e-014
lhumerus -37.7693 18.9898 78.9126
lradius 25.6498
lwrist -2.11729
lhand -18.1011 20.9703
lfingers 7.12502
lthumb 8.17274 50.7922
rfemur 17.7418 -6.53798 32.8644
rtibia -7.95139e-014
rfoot -11.8886 2.98161
rtoes 5.08346
lfemur -64.0113 9.58952 -12.9888
ltibia 76.9294
lfoot -5.69237 -14.7099
ltoes 1.15055
1122
root 29.299 17.7785 -0.994955 -247.989 -80.5975 -113.075
lowerback 12.0432 1.58878 10.1065
upperback 4.8389 2.98459 4.07372
thorax -1.3094 1.41036 -1.7705
lowerneck -13.7484 -1.09523 -10.4704
upperneck 36.081 -1.56183 4.65582
head 14.9603 -1.89434 3.43694
rclavicle -2.52457e-014 -3.4191e-014
rhumerus -25.6738 -0.537514 -84.9259
rradius 35.3362
rwrist -12.5184
rhand -21.1323 12.1253
rfingers 7.12502
rthumb 5.24664 -17.7898
lclavicle -2.52457e-014 -3.4191e-014
lhumerus -37.6642 18.5617 78.9919
lradius 25.8485
lwrist -1.67107
lhand -17.8321 21.0919
lfingers 7.12502
lthumb 8.4324 50.9036
rfemur 17.9216 -6.67173 32.7202
rtibia 2.54444e-014
rfoot -11.8223 2.98583
rtoes 3.52147
lfemur -63.6919 9.35905 -12.9955
ltibia 76.4472
lfoot -5.76273 -14.2469
ltoes -0.407078
1123
root 29.2289 17.837 -1.00431 -248.541 -80.667 -112.374
lowerback 11.9864 1.5847 10.1126
upperback 4.79241 2.98125 3.99553
thorax -1.32381 1.41064 -1.85442
lowerneck -13.7596 -1.08487 -10.4075
upperneck 36.0988 -1.56665 4.66512
head 14.9705 -1.8868 3.4297
rclavicle 3.18055e-015 -1.43125e-014
rhumerus -25.7936 -0.742525 -85.2818
rradius 35.2798
rwrist -12.6325
rhand -21.2223 12.4047
rfingers 7.12502
rthumb 5.15971 -17.5125
lclavicle 3.18055e-015 -1.43125e-014
lhumerus -37.652 18.6381 78.8526
lradius 25.9834
lwrist -1.53965
lhand -17.5233 21.0441
lfingers 7.12502
lthumb 8.73035 50.8435
rfemur 17.9254 -6.71891 32.6812
rtibia -1.27222e-014
rfoot -11.6367 3.13989
rtoes 3.98788
lfemur -63.5189 8.84342 -11.8556
ltibia 76.3051
lfoot -2.72363 -14.4785
ltoes 17.7227
1124
root 29.1561 17.7869 -0.992945 -250.564 -80.4867 -110.076
lowerback 11.8653 1.54805 10.585
upperback 4.68147 2.98041 4.03573
thorax -1.34721 1.41064 -2.06842
lowerneck -13.7494 -1.13141 -10.5135
upperneck 36.1011 -1.6269 4.73094
head 14.978 -1.91705 3.4671
rclavicle 2.32578e-014 4.21423e-014
rhumerus -25.9267 -0.775703 -85.4432
rradius 35.1454
rwrist -12.5885
rhand -21.1557 12.5526
rfingers 7.12502
rthumb 5.22404 -17.363
lclavicle 2.32578e-014 4.21423e-014
lhumerus -37.6274 18.7726 78.8831
lradius 26.0282
lwrist -1.85612
lhand -17.6133 20.9227
lfingers 7.12502
lthumb 8.64348 50.7257
rfemur 17.9909 -6.88542 32.9182
rtibia -1.90833e-014
rfoot -11.8387 3.35083
rtoes 4.72293
lfemur -63.6171 9.06613 -12.3326
ltibia 75.8917
lfoot -3.61064 -13.7094
ltoes 9.43148
1125
root 29.0827 17.7734 -0.991327 -251.923 -80.6364 -108.502
lowerback 11.7639 1.52944 10.4623
upperback 4.6342 2.93788 4.07549
thorax -1.35722 1.38801 -1.9525
lowerneck -13.7493 -1.15841 -10.6405
upperneck 36.0321 -1.63634 4.78038
head 14.9488 -1.92631 3.50768
rclavicle 3.67752e-014 -1.19271e-014
rhumerus -25.9902 -0.581949 -85.6006
rradius 34.9939
rwrist -12.5335
rhand -21.3365 12.5109
rfingers 7.12502
rthumb 5.04945 -17.4089
lclavicle 3.67752e-014 -1.19271e-014
lhumerus -37.5719 18.7392 79.1294
lradius 26.1775
lwrist -2.03167
lhand -18.1621 20.992
lfingers 7.12502
lthumb 8.11389 50.8162
rfemur 18.0871 -7.06446 32.7855
rtibia 1.27222e-014
rfoot -12.0393 3.46966
rtoes 4.43189
lfemur -63.6144 8.9551 -12.6106
ltibia 75.618
lfoot -3.66957 -12.9671
ltoes 8.61169
1126
root 29.0063 17.7452 -0.99743 -252.85 -80.7269 -107.441
lowerback 11.7277 1.58302 10.214
upperback 4.60859 2.98273 4.17568
thorax -1.38157 1.40565 -1.71654
lowerneck -13.7137 -1.21465 -10.9124
upperneck 36.0107 -1.70259 4.95214
head 14.9431 -1.96663 3.61788
rclavicle 9.93923e-016 7.15625e-015
rhumerus -26.0844 -0.652895 -85.6363
rradius 34.947
rwrist -12.5028
rhand -21.3563 11.9853
rfingers 7.12502
rthumb 5.03028 -17.935
lclavicle 9.93923e-016 7.15625e-015
lhumerus -37.4741 18.4757 79.4511
lradius 26.3441
lwrist -1.93603
lhand -18.2575 21.3366
lfingers 7.12502
lthumb 8.02185 51.1644
rfemur 18.2432 -7.17587 32.7395
rtibia 2.8625e-014
rfoot -11.9614 3.43919
rtoes 3.74313
lfemur -63.473 9.0111 -12.872
ltibia 75.2543
lfoot -3.95538 -12.5466
ltoes 4.37406
1127
root 28.9312 17.7098 -0.995321 -254.614 -80.5368 -105.538
lowerback 11.7565 1.53706 10.3911
upperback 4.56963 2.94762 4.26767
thorax -1.4357 1.38373 -1.7149
lowerneck -13.7391 -1.20396 -10.9213
upperneck 35.9645 -1.66918 4.94664
head 14.9235 -1.94999 3.62174
rclavicle -1.0138e-014 -1.59028e-014
rhumerus -26.1966 -0.463309 -85.8543
rradius 34.9604
rwrist -12.6784
rhand -21.2915 11.5085
rfingers 7.12502
rthumb 5.09287 -18.4103
lclavicle -1.0138e-014 -1.59028e-014
lhumerus -37.3527 18.2866 79.5935
lradius 26.4591
lwrist -1.71579
lhand -17.9384 21.3915
lfingers 7.12502
lthumb 8.32975 51.2073
rfemur 18.3549 -7.33615 32.9809
rtibia -1.59028e-014
rfoot -11.7923 3.52133
rtoes 3.56586
lfemur -63.3357 9.05718 -12.798
ltibia 74.9867
lfoot -4.24861 -12.4895
ltoes 1.77373
1128
root 28.8546 17.7056 -0.994189 -255.578 -80.4994 -104.292
lowerback 11.6176 1.47624 10.4472
upperback 4.54324 2.86 4.18972
thorax -1.38957 1.34534 -1.81293
lowerneck -13.929 -1.17366 -10.5736
upperneck 35.8911 -1.6279 4.78797
head 14.9214 -1.89732 3.49901
rclavicle 2.20651e-014 -5.56597e-015
rhumerus -26.2118 -0.326687 -86.3437
rradius 34.8757
rwrist -12.7748
rhand -21.4899 11.3709
rfingers 7.12502
rthumb 4.90133 -18.5525
lclavicle 2.20651e-014 -5.56597e-015
lhumerus -37.2453 18.2803 79.4783
lradius 26.5904
lwrist -1.68331
lhand -18.2369 20.7586
lfingers 7.12502
lthumb 8.04173 50.5856
rfemur 18.2935 -7.3994 33.0199
rtibia -6.67916e-014
rfoot -11.6613 3.78923
rtoes 5.00519
lfemur -63.2715 9.09048 -12.7635
ltibia 74.7424
lfoot -4.44644 -12.9136
ltoes 0.583191
1129
root 28.7761 17.7129 -0.994995 -256.48 -80.4809 -103.038
lowerback 11.3957 1.48447 10.4891
upperback 4.46796 2.85745 4.17749
thorax -1.34557 1.34732 -1.8423
lowerneck -13.9988 -1.19447 -10.4281
upperneck 35.8899 -1.63913 4.65257
head 14.9361 -1.8978 3.41456
rclavicle 2.34566e-014 6.36111e-014
rhumerus -26.2601 -0.425601 -86.5744
rradius 34.6394
rwrist -12.697
rhand -21.4894 11.5239
rfingers 7.12502
rthumb 4.90179 -18.3994
lclavicle 2.34566e-014 6.36111e-014
lhumerus -37.1836 17.9622 79.6124
lradius 26.8158
lwrist -1.55072
lhand -18.2292 20.4356
lfingers 7.12502
lthumb 8.04912 50.2624
rfemur 18.1623 -7.46156 33.0821
rtibia 2.22639e-014
rfoot -11.7016 3.91635
rtoes 5.13502
lfemur -63.3014 9.10915 -12.7157
ltibia 74.5583
lfoot -4.37904 -13.521
ltoes 1.05601
1130
root 28.6951 17.7096 -0.998461 -258.144 -80.5545 -101.103
lowerback 11.2752 1.50235 10.3291
upperback 4.38488 2.86161 4.28503
thorax -1.38321 1.34462 -1.64077
lowerneck -13.9286 -1.26474 -10.554
upperneck 35.8961 -1.66374 4.51107
head 14.9292 -1.94463 3.37257
rclavicle 1.27222e-014 2.78299e-014
rhumerus -26.351 -0.352647 -86.5286
rradius 34.3545
rwrist -12.4857
rhand -21.2087 11.9016
rfingers 7.12502
rthumb 5.17282 -18.0153
lclavicle 1.27222e-014 2.78299e-014
lhumerus -37.0678 17.6836 79.9397
lradius 27.0244
lwrist -1.15947
lhand -17.6784 20.5313
lfingers 7.12502
lthumb 8.58069 50.3369
rfemur 18.1617 -7.67864 33.1027
rtibia -6.36111e-015
rfoot -11.7643 3.81492
rtoes 3.02354
lfemur -63.1801 8.96328 -12.8112
ltibia 74.368
lfoot -4.28335 -13.9787
ltoes 5.08873
1131
root 28.6144 17.7027 -0.996169 -259.846 -80.5141 -99.2471
lowerback 11.3437 1.48956 10.3165
upperback 4.31939 2.86179 4.34832
thorax -1.4944 1.33765 -1.57162
lowerneck -13.8174 -1.35423 -10.7287
upperneck 35.7597 -1.79192 4.63349
head 14.856 -1.9992 3.43089
rclavicle -1.5704e-014 1.35174e-014
rhumerus -26.4626 -0.343781 -86.5707
rradius 34.1794
rwrist -12.1871
rhand -20.9852 11.9421
rfingers 7.12502
rthumb 5.3886 -17.9694
lclavicle -1.5704e-014 1.35174e-014
lhumerus -36.9818 17.7466 80.0078
lradius 27.1802
lwrist -1.02671
lhand -17.6742 20.4572
lfingers 7.12502
lthumb 8.58475 50.2627
rfemur 18.2826 -7.89025 33.2233
rtibia 3.18055e-014
rfoot -11.6467 3.60609
rtoes 1.53288
lfemur -62.8922 8.83967 -12.8623
ltibia 74.1833
lfoot -4.58889 -14.6282
ltoes 7.54283
